<?xml version="1.0" standalone="no"?>
<!DOCTYPE svg PUBLIC "-//W3C//DTD SVG 20010904//EN"
 "http://www.w3.org/TR/2001/REC-SVG-20010904/DTD/svg10.dtd">
<svg version="1.0" xmlns="http://www.w3.org/2000/svg"
 width="904.000000pt" height="485.000000pt" viewBox="0 0 904.000000 485.000000"
 preserveAspectRatio="xMidYMid meet">

<g transform="translate(0.000000,485.000000) scale(0.100000,-0.100000)"
fill="#000000" stroke="none">
<path d="M10 2425 l0 -2425 4495 0 4495 0 0 2425 0 2425 -4495 0 -4495 0 0
-2425z m2827 93 c33 -90 82 -223 109 -295 36 -101 52 -133 66 -133 9 0 20 -4
23 -10 4 -6 -45 -10 -139 -10 -91 0 -146 4 -146 10 0 6 13 10 29 10 l29 0 -32
90 -31 90 -82 0 -81 0 -31 -86 c-17 -47 -31 -87 -31 -90 0 -2 14 -4 30 -4 17
0 30 -4 30 -10 0 -6 -30 -10 -70 -10 -40 0 -70 4 -70 10 0 6 10 10 23 10 18 0
26 10 41 53 10 28 59 161 108 295 l90 242 38 0 38 0 59 -162z m4191 150 l42
-1 0 -83 c0 -46 -4 -84 -9 -84 -6 0 -29 27 -52 60 -51 73 -92 100 -148 100
-71 0 -120 -65 -91 -121 14 -24 64 -49 165 -80 128 -39 188 -117 171 -222 -24
-145 -131 -200 -323 -165 -51 9 -69 9 -85 -1 -11 -7 -21 -11 -23 -9 -7 8 -11
199 -5 203 5 3 29 -24 55 -60 75 -106 152 -143 228 -111 60 24 74 84 32 134
-18 21 -48 37 -107 56 -151 48 -197 88 -206 175 -9 99 20 160 97 202 31 17 48
19 126 13 50 -3 109 -6 133 -6z m-5188 -8 c0 -5 -13 -10 -28 -10 l-28 0 65
-194 c36 -107 67 -193 68 -192 8 8 63 205 63 225 0 14 -10 55 -22 93 -18 57
-25 68 -44 68 -13 0 -26 5 -29 10 -4 6 43 10 135 10 92 0 139 -4 135 -10 -3
-5 -15 -10 -27 -10 -13 0 -18 -5 -15 -13 3 -8 28 -87 57 -178 28 -90 54 -171
57 -179 5 -13 24 56 96 343 7 26 6 27 -32 27 -22 0 -43 5 -46 10 -4 6 29 10
91 10 60 0 94 -4 89 -9 -6 -5 -21 -11 -35 -13 -24 -3 -28 -16 -97 -273 -40
-148 -75 -280 -78 -293 -5 -20 -11 -23 -47 -20 l-41 3 -62 185 -62 185 -21
-70 c-11 -38 -36 -122 -54 -185 l-33 -115 -41 -3 -41 -3 -32 88 c-168 464
-184 503 -202 503 -10 0 -21 5 -24 10 -4 6 45 10 139 10 91 0 146 -4 146 -10z
m1533 -97 c31 -60 78 -151 106 -203 l51 -95 0 193 c0 185 -1 192 -20 192 -11
0 -20 5 -20 10 0 6 27 10 60 10 33 0 60 -4 60 -10 0 -5 -11 -10 -25 -10 l-25
0 0 -290 0 -290 -62 0 -63 0 -100 191 c-55 105 -119 226 -142 268 l-42 76 -1
-257 c0 -249 1 -258 19 -258 11 0 23 -4 26 -10 4 -6 -18 -10 -59 -10 -37 0
-66 4 -66 10 0 6 11 10 25 10 l25 0 0 280 c0 270 -1 280 -19 280 -11 0 -23 5
-26 10 -4 6 38 10 119 10 l124 0 55 -107z m742 79 c61 -28 90 -55 118 -107 19
-34 22 -56 22 -155 0 -104 -3 -120 -26 -165 -27 -54 -91 -105 -157 -126 -49
-16 -412 -25 -412 -10 0 6 14 11 30 11 l30 0 0 280 0 280 -30 0 c-16 0 -30 5
-30 11 0 7 63 9 203 7 186 -3 206 -5 252 -26z m667 -42 c0 -38 1 -75 2 -82 2
-28 -22 -15 -39 21 -32 71 -90 111 -161 111 l-34 0 0 -130 0 -130 28 0 c34 0
69 31 88 76 27 63 35 39 32 -93 -3 -129 -12 -154 -33 -92 -16 45 -52 79 -86
79 l-29 0 0 -136 0 -137 52 6 c71 9 125 48 158 114 44 90 61 58 44 -84 l-7
-53 -238 0 c-153 0 -239 4 -239 10 0 6 11 10 25 10 l25 0 0 280 c0 270 -1 280
-19 280 -11 0 -23 5 -26 10 -4 7 73 10 224 10 l231 0 2 -70z m555 47 c42 -22
63 -64 63 -122 0 -76 -29 -115 -99 -135 -26 -7 -25 -7 12 -23 49 -21 67 -63
67 -160 0 -102 34 -129 55 -44 7 27 25 38 25 15 0 -43 -23 -89 -52 -104 -49
-25 -141 -15 -176 19 -24 25 -27 35 -32 136 -6 122 -15 141 -66 141 l-34 0 0
-140 0 -140 24 0 c14 0 28 -4 31 -10 4 -6 -45 -10 -139 -10 -91 0 -146 4 -146
10 0 6 11 10 25 10 l25 0 0 280 0 280 -25 0 c-14 0 -25 5 -25 11 0 7 68 9 218
7 185 -3 222 -6 249 -21z m488 13 c-3 -5 -26 -10 -51 -10 l-44 0 0 -280 0
-280 30 0 c68 0 135 52 180 140 28 55 51 54 45 -2 -2 -24 -7 -69 -10 -100 l-6
-58 -230 0 c-146 0 -229 4 -229 10 0 6 11 10 25 10 l25 0 0 280 0 280 -25 0
c-14 0 -25 5 -25 10 0 6 60 10 161 10 104 0 158 -3 154 -10z m485 0 c0 -5 -11
-10 -25 -10 l-25 0 0 -232 c0 -255 6 -288 60 -315 55 -28 134 -5 174 50 20 27
21 44 24 263 l3 234 -25 0 c-14 0 -28 5 -31 10 -4 6 20 10 65 10 45 0 69 -4
65 -10 -3 -5 -15 -10 -26 -10 -18 0 -19 -9 -19 -212 0 -124 -5 -230 -11 -253
-15 -52 -65 -100 -120 -115 -57 -16 -186 -7 -230 15 -96 49 -109 90 -109 362
0 194 -1 203 -19 203 -11 0 -23 5 -26 10 -4 6 43 10 134 10 87 0 141 -4 141
-10z m1398 -102 c1 -60 -1 -108 -6 -108 -4 0 -23 36 -41 80 -32 80 -67 120
-102 120 -18 0 -19 -13 -19 -280 l0 -280 35 0 c19 0 35 -4 35 -10 0 -6 -60
-10 -160 -10 -100 0 -160 4 -160 10 0 6 16 10 35 10 l35 0 0 280 0 280 -23 0
c-12 0 -32 -6 -43 -14 -17 -12 -67 -108 -88 -169 -3 -10 -10 -15 -16 -12 -12
7 -13 51 -3 148 l6 67 256 -2 256 -3 3 -107z"/>
<path d="M2629 2403 c-19 -53 -35 -101 -37 -105 -2 -4 30 -8 72 -8 l75 0 -35
102 c-18 55 -35 103 -37 105 -2 1 -19 -41 -38 -94z"/>
<path d="M3890 2370 l0 -283 50 5 c103 10 135 76 135 283 0 209 -27 264 -130
273 l-55 4 0 -282z"/>
<path d="M5100 2519 l0 -132 38 6 c48 8 69 35 77 101 13 104 -12 156 -77 156
l-38 0 0 -131z"/>
<path d="M9035 2425 c0 -1337 1 -1882 2 -1212 2 670 2 1764 0 2430 -1 667 -2
119 -2 -1218z"/>
</g>
</svg>
